<?xml version="1.0" encoding="UTF-8"?><svg id="Layer_4" xmlns="http://www.w3.org/2000/svg" viewBox="0 0 291.57 164.39"><defs><style>.cls-1,.cls-2{fill:#fff;}.cls-2{fill-rule:evenodd;}.cls-3{fill:none;}</style></defs><g><path class="cls-1" d="M160.21,24.03l-7.94,21.85,.03-21.81c2.7-.15,5.35-.16,7.91-.04Z"/><path class="cls-1" d="M166.18,79.37c-4.23,1.95-8.83,3.6-13.71,4.88v-24.18l13.71,19.3Z"/><path class="cls-1" d="M136.95,26.42c-1.08,.27-2.15,.56-3.21,.86l-16.58,35.35,17.56,24.32c3.3-.14,6.7-.49,10.16-1.07l.1-61.05c-2.64,.4-5.33,.93-8.03,1.59Zm-11.97,46.1v-14.7l6.11-3.73v16.97l-6.11,1.46Zm4.82-19.26c-1.37,1.35-3.24,1.29-4.17-.1-.93-1.42-.62-3.68,.79-5.06,1.41-1.37,3.24-1.29,4.17,.13,.92,1.4,.58,3.68-.79,5.03Zm13.73,13.32c-.94,2.16-3.68,3.73-6.33,2.86-1.28-.41-3.35-1.69-3.33-4.93l.05-9.22-1.88,.47,.05-2.18,6.29-8.77,1.87-.46-.06,4.98,3.85-.96-.04,4.42-3.87,.97-.06,7.51c0,1.64,.06,2.44,.46,2.8,1.2,1.07,2.97-1.05,3.55-1.53,.08,.89,.08,2.57-.55,4.04Z"/><path class="cls-1" d="M125.67,86.76c-4.84-.42-9.34-1.34-13.33-2.72l.14-15.16,13.19,17.88Z"/><path class="cls-1" d="M171.32,52.13l-.12,4c-.05,1.07-1.09,1.46-1.64,1.33-.49-.11-1.24-.58-1.04-1.87,.2-1.2,2.07-2.92,2.8-3.46Z"/><path class="cls-1" d="M193.53,43.26c-.54-2.18-1.47-4.21-2.75-6.06l-.04,4.31-3.87,.97-.06,7.52c0,1.64,.06,2.43,.47,2.79,1.19,1.07,2.96-1.04,3.54-1.52,.09,.88,.08,2.56-.55,4.04-.93,2.15-3.67,3.72-6.33,2.86-1.27-.42-3.34-1.69-3.33-4.93l.05-9.22-1.87,.46,.05-2.17,6.32-8.82,1.83-.46c-4.48-3.86-10.82-6.61-18.31-8.01l-11.52,28.02,16.11,22.61c14.64-8.76,23.04-21.17,20.26-32.39Zm-14.58,14.44c-1.04,2.92-3.56,3.95-6.11,2.4-2.36,2.4-4.96,2.81-7.06,2.15-1.9-.61-3.47-3.9-2.83-6.62,.39-1.67,1.02-3,2.65-4.51,1.63-1.5,4.67-3.09,5.39-4.44,.57-1.03,.17-2.22-.97-1.95-1.88,.45-5.01,3.93-6.45,5.54l.03-5.45c.99-1.61,3.1-4.3,5.68-5.22,3.68-1.31,7.91,.68,8.03,4.71v9.83c0,1.02,1.52,.72,2.24-.2,.02,.82-.18,2.58-.6,3.76Z"/><path class="cls-1" d="M190.78,37.2l-3.85,.95v-.1l.06-5.02c1.45,1.25,2.7,2.61,3.72,4.08l.07,.09Z"/><path class="cls-1" d="M197.6,42.25c-3.23-13.05-19.51-20.9-39.92-20.9-6.76,0-13.98,.86-21.32,2.68-5.82,1.44-11.29,3.38-16.29,5.69-.01,.01-.02,.01-.04,.02,0-.01-.07-.26-.15-.57-.09-.32-.19-.68-.27-.93-.09-.3-.35-.52-.65-.58-.31-.05-.63,.07-.82,.32-.35,.43-.76,.41-2.11,.11h-.04c-1.74-.4-4.3-.98-6.69,2.18-2.43-1.59-5.45-2.26-7.93-1.72-2.84,.62-5.47,2.41-7.41,5.02-2.15,2.92-3.23,6.44-3.05,9.92,.01,.25,.03,.49,.06,.74,.27,2.62,1.31,5.02,2.98,6.98-3.41,5.76-4.68,11.77-3.26,17.51,4.3,17.36,31.72,25.52,61.24,18.21s49.97-27.31,45.67-44.68Zm-105.55,2.42c-.03-.22-.05-.45-.07-.68-.24-3.34,.78-6.73,2.71-9.45,1.87-2.63,4.34-4.24,6.83-4.85,2.47-.59,5.65,.2,7.98,1.91l.03,.03,.03-.05c2.15-3.51,4.43-3,6.27-2.63,1.22,.25,2.25,.46,2.95-.47,.48,1.4,.8,2.74,.97,3.99,.09,.65,.13,1.28,.14,1.88,.02,1.62-.26,3.1-.82,4.42-.6,1.39-1.5,2.58-2.71,3.54-1.11,.88-2.44,1.54-3.87,1.91-4.52,1.14-8.29,2.49-10.93,4.1-2.59,1.57-3.79,3.19-4.6,4.64-2.73-1.99-4.49-4.86-4.91-8.29Zm59.62,41.2c-28.53,7.07-55.03-.81-59.18-17.6-1.29-5.2-.28-10.65,2.58-15.9,.07,.07,.15,.14,.23,.21,.41,.37,.87,.7,1.37,1-2.3,4.68-3.06,9.51-1.92,14.13,1.34,5.38,5.07,9.8,10.48,13.05l.06-33.75c.09-.04,.18-.07,.27-.1,1.92-.72,4.19-1.38,6.79-1.99v11.82l10.6-25.53c-.82,.36-1.63,.74-2.43,1.13-.06-.48-.14-.97-.24-1.48,4.99-2.35,10.48-4.32,16.34-5.77,28.53-7.06,55.03,.82,59.18,17.6,4.16,16.79-15.6,36.12-44.13,43.18Z"/><path class="cls-1" d="M117.22,32.6c.01,.17-.09,.34-.23,.37l-3.09,.66c-.1,.02-.18-.06-.19-.17v-.29c-.02-.11,.05-.24,.16-.28,.1-.03,3.07-1,3.07-1,.14-.05,.26,.08,.26,.25l.02,.46Z"/><path class="cls-1" d="M113.42,39.03c.01,.21-.16,.4-.32,.44l-.41,.13c-.16,.05-.3-.09-.31-.3l-.33-5.92c0-.22,.12-.42,.28-.45l.42-.09c.15-.04,.34,.1,.35,.31l.32,5.88Z"/><path class="cls-1" d="M117.49,38.64c-2.78,6.29-13.08,1.48-21.06,10.41l-.13-2.57c9.75-7.02,16.31-2.52,21.19-7.84Z"/><path class="cls-1" d="M112.13,39.51c.01,.16-.09,.33-.22,.36l-.41,.12c-.79,.24-1.32-.38-1.36-1.24l-.11-2.47-.24,.06c-.12,.03-.23-.07-.23-.22l-.02-.42c-.01-.16,.08-.31,.21-.34l.23-.05-.07-1.52c-.01-.22,.12-.42,.29-.46l.45-.09c.17-.04,.32,.1,.33,.32l.06,1.5,.69-.17c.12-.03,.22,.07,.23,.22l.02,.41c0,.16-.09,.3-.21,.33l-.68,.17,.1,2.26c.02,.44,.24,.68,.61,.58l.06-.02c.13-.04,.24,.06,.25,.23l.02,.44Z"/><path class="cls-1" d="M109.32,34.4c0,.17-.09,.32-.22,.35l-7.97,1.8,.29,5.9c.01,.26-.16,.53-.39,.6l-.7,.23c-.31,.09-.51-.03-.65-.24-.08-.11-2.49-4.24-2.49-4.24l.29,4.88c.01,.27-.18,.56-.41,.63l-.47,.17c-.25,.08-.47-.09-.48-.37l-.37-7.08c-.01-.28,.19-.54,.44-.6l.78-.19c.34-.08,.59,.07,.72,.27,.17,.26,2.44,4.29,2.44,4.29l-.27-4.61c-.01-.27,.16-.53,.39-.59l8.8-1.89c.13-.03,.24,.08,.24,.25l.03,.44Z"/><path class="cls-1" d="M109.79,38.89c.05,1.25-.94,1.94-1.69,2.16-1.06,.33-1.88-.2-1.92-.94v-.09c-.01-.15,.09-.28,.18-.3l.31-.11c.16-.04,.49-.09,.56,.08,.12,.29,.47,.39,.82,.29,.37-.11,.7-.35,.68-.75-.01-.25-.22-.28-.46-.3-.23,0-.68-.03-.96-.04-.6-.03-1.12-.36-1.15-1.13-.05-1.01,.62-1.82,1.67-2.07,.99-.24,1.7,.25,1.73,.99,.01,.14-.08,.25-.16,.27l-.49,.13c-.12,.03-.22,.03-.27-.1-.11-.27-.39-.37-.77-.27-.34,.09-.61,.29-.6,.67,.02,.25,.24,.28,.47,.3,.13,.01,.74,.04,.99,.06,.62,.03,1.02,.44,1.06,1.15Z"/><path class="cls-1" d="M117.54,35.86c-.04-1.2-.68-2.27-2.03-1.98-1.29,.28-1.97,1.66-1.91,2.94,.06,1.37,.89,2.35,2.13,2.02,.83-.23,1.6-1.02,1.72-1.92,.01-.11-.06-.25-.19-.22l-.58,.15c-.1,.02-.19,.11-.24,.22-.15,.34-.39,.62-.75,.72-.53,.13-.92-.27-.98-.81l2.52-.63c.23-.06,.33-.23,.31-.49Zm-2.86,.16c.02-.55,.4-1.05,.88-1.15,.46-.11,.87,.2,.94,.72l-1.82,.43Z"/><path class="cls-1" d="M105.93,38.79c-.07-1.38-.76-2.6-2.2-2.23-1.37,.35-2.09,1.96-2.02,3.44,.08,1.58,.99,2.69,2.31,2.27,.88-.29,1.71-1.16,1.82-2.19,.02-.14-.06-.3-.2-.25l-.62,.19c-.12,.03-.21,.13-.26,.25-.15,.4-.41,.67-.81,.79-.56,.18-.98-.28-1.04-.91l2.69-.79c.24-.08,.34-.28,.33-.57Zm-3.07,.26c.02-.64,.42-1.22,.93-1.36,.5-.13,.94,.21,1.01,.81l-1.94,.55Z"/><path class="cls-2" d="M192.13,29.49c.55,0,.51-.5,.51-.5,0-.42-.42-.44-.42-.44h-.96v1.73h.27v-.78h.27l.51,.78h.34l-.52-.79Zm-.6-.25v-.44h.6s.22,.01,.22,.2c0,0,.07,.24-.22,.24h-.6Zm.6,.25c.55,0,.51-.5,.51-.5,0-.42-.42-.44-.42-.44h-.96v1.73h.27v-.78h.27l.51,.78h.34l-.52-.79Zm-.6-.25v-.44h.6s.22,.01,.22,.2c0,0,.07,.24-.22,.24h-.6Zm.6,.25c.55,0,.51-.5,.51-.5,0-.42-.42-.44-.42-.44h-.96v1.73h.27v-.78h.27l.51,.78h.34l-.52-.79Zm-.6-.25v-.44h.6s.22,.01,.22,.2c0,0,.07,.24-.22,.24h-.6Zm.6,.25c.55,0,.51-.5,.51-.5,0-.42-.42-.44-.42-.44h-.96v1.73h.27v-.78h.27l.51,.78h.34l-.52-.79Zm-.6-.25v-.44h.6s.22,.01,.22,.2c0,0,.07,.24-.22,.24h-.6Zm.6,.25c.55,0,.51-.5,.51-.5,0-.42-.42-.44-.42-.44h-.96v1.73h.27v-.78h.27l.51,.78h.34l-.52-.79Zm-.6-.25v-.44h.6s.22,.01,.22,.2c0,0,.07,.24-.22,.24h-.6Zm1.11-.25c0-.42-.42-.44-.42-.44h-.96v1.73h.27v-.78h.27l.51,.78h.34l-.52-.79c.55,0,.51-.5,.51-.5Zm-1.11,.25v-.44h.6s.22,.01,.22,.2c0,0,.07,.24-.22,.24h-.6Zm.34-1.43c-.89,0-1.61,.72-1.61,1.6s.72,1.61,1.61,1.61,1.6-.72,1.6-1.61-.72-1.6-1.6-1.6Zm0,2.91c-.73,0-1.31-.58-1.31-1.31s.58-1.31,1.31-1.31,1.31,.59,1.31,1.31-.59,1.31-1.31,1.31Zm.26-1.23c.55,0,.51-.5,.51-.5,0-.42-.42-.44-.42-.44h-.96v1.73h.27v-.78h.27l.51,.78h.34l-.52-.79Zm-.6-.25v-.44h.6s.22,.01,.22,.2c0,0,.07,.24-.22,.24h-.6Zm.6,.25c.55,0,.51-.5,.51-.5,0-.42-.42-.44-.42-.44h-.96v1.73h.27v-.78h.27l.51,.78h.34l-.52-.79Zm-.6-.25v-.44h.6s.22,.01,.22,.2c0,0,.07,.24-.22,.24h-.6Zm.6,.25c.55,0,.51-.5,.51-.5,0-.42-.42-.44-.42-.44h-.96v1.73h.27v-.78h.27l.51,.78h.34l-.52-.79Zm-.6-.25v-.44h.6s.22,.01,.22,.2c0,0,.07,.24-.22,.24h-.6Zm.6,.25c.55,0,.51-.5,.51-.5,0-.42-.42-.44-.42-.44h-.96v1.73h.27v-.78h.27l.51,.78h.34l-.52-.79Zm-.6-.25v-.44h.6s.22,.01,.22,.2c0,0,.07,.24-.22,.24h-.6Zm.6,.25c.55,0,.51-.5,.51-.5,0-.42-.42-.44-.42-.44h-.96v1.73h.27v-.78h.27l.51,.78h.34l-.52-.79Zm-.6-.25v-.44h.6s.22,.01,.22,.2c0,0,.07,.24-.22,.24h-.6Zm.6,.25c.55,0,.51-.5,.51-.5,0-.42-.42-.44-.42-.44h-.96v1.73h.27v-.78h.27l.51,.78h.34l-.52-.79Zm-.6-.25v-.44h.6s.22,.01,.22,.2c0,0,.07,.24-.22,.24h-.6Zm.6,.25c.55,0,.51-.5,.51-.5,0-.42-.42-.44-.42-.44h-.96v1.73h.27v-.78h.27l.51,.78h.34l-.52-.79Zm-.6-.25v-.44h.6s.22,.01,.22,.2c0,0,.07,.24-.22,.24h-.6Z"/><path class="cls-2" d="M121.5,27.02c.54,0,.5-.5,.5-.5,0-.42-.41-.44-.41-.44h-.97v1.73h.27v-.78h.28l.5,.78h.35l-.52-.79Zm-.61-.25v-.45h.6s.23,0,.23,.21c0,0,.07,.24-.22,.24h-.61Zm.61,.25c.54,0,.5-.5,.5-.5,0-.42-.41-.44-.41-.44h-.97v1.73h.27v-.78h.28l.5,.78h.35l-.52-.79Zm-.61-.25v-.45h.6s.23,0,.23,.21c0,0,.07,.24-.22,.24h-.61Zm.61,.25c.54,0,.5-.5,.5-.5,0-.42-.41-.44-.41-.44h-.97v1.73h.27v-.78h.28l.5,.78h.35l-.52-.79Zm-.61-.25v-.45h.6s.23,0,.23,.21c0,0,.07,.24-.22,.24h-.61Zm.61,.25c.54,0,.5-.5,.5-.5,0-.42-.41-.44-.41-.44h-.97v1.73h.27v-.78h.28l.5,.78h.35l-.52-.79Zm-.61-.25v-.45h.6s.23,0,.23,.21c0,0,.07,.24-.22,.24h-.61Zm.61,.25c.54,0,.5-.5,.5-.5,0-.42-.41-.44-.41-.44h-.97v1.73h.27v-.78h.28l.5,.78h.35l-.52-.79Zm-.61-.25v-.45h.6s.23,0,.23,.21c0,0,.07,.24-.22,.24h-.61Zm.61,.25c.54,0,.5-.5,.5-.5,0-.42-.41-.44-.41-.44h-.97v1.73h.27v-.78h.28l.5,.78h.35l-.52-.79Zm-.61-.25v-.45h.6s.23,0,.23,.21c0,0,.07,.24-.22,.24h-.61Zm1.11-.25c0-.42-.41-.44-.41-.44h-.97v1.73h.27v-.78h.28l.5,.78h.35l-.52-.79c.54,0,.5-.5,.5-.5Zm-1.11,.25v-.45h.6s.23,0,.23,.21c0,0,.07,.24-.22,.24h-.61Zm.34-1.43c-.88,0-1.6,.71-1.6,1.6s.72,1.61,1.6,1.61,1.61-.72,1.61-1.61-.72-1.6-1.61-1.6Zm0,2.91c-.72,0-1.31-.58-1.31-1.31s.59-1.31,1.31-1.31,1.31,.59,1.31,1.31-.58,1.31-1.31,1.31Zm.27-1.23c.54,0,.5-.5,.5-.5,0-.42-.41-.44-.41-.44h-.97v1.73h.27v-.78h.28l.5,.78h.35l-.52-.79Zm-.61-.25v-.45h.6s.23,0,.23,.21c0,0,.07,.24-.22,.24h-.61Zm.61,.25c.54,0,.5-.5,.5-.5,0-.42-.41-.44-.41-.44h-.97v1.73h.27v-.78h.28l.5,.78h.35l-.52-.79Zm-.61-.25v-.45h.6s.23,0,.23,.21c0,0,.07,.24-.22,.24h-.61Zm.61,.25c.54,0,.5-.5,.5-.5,0-.42-.41-.44-.41-.44h-.97v1.73h.27v-.78h.28l.5,.78h.35l-.52-.79Zm-.61-.25v-.45h.6s.23,0,.23,.21c0,0,.07,.24-.22,.24h-.61Zm.61,.25c.54,0,.5-.5,.5-.5,0-.42-.41-.44-.41-.44h-.97v1.73h.27v-.78h.28l.5,.78h.35l-.52-.79Zm-.61-.25v-.45h.6s.23,0,.23,.21c0,0,.07,.24-.22,.24h-.61Zm.61,.25c.54,0,.5-.5,.5-.5,0-.42-.41-.44-.41-.44h-.97v1.73h.27v-.78h.28l.5,.78h.35l-.52-.79Zm-.61-.25v-.45h.6s.23,0,.23,.21c0,0,.07,.24-.22,.24h-.61Zm.61,.25c.54,0,.5-.5,.5-.5,0-.42-.41-.44-.41-.44h-.97v1.73h.27v-.78h.28l.5,.78h.35l-.52-.79Zm-.61-.25v-.45h.6s.23,0,.23,.21c0,0,.07,.24-.22,.24h-.61Z"/><path class="cls-1" d="M264.25,106.73c-1.98,0-3.61,2.09-5.29,8.36-1.13,4.19-5.42,8.76-7.51,8.76-1.05,0-1.55-.73-.74-3.77l3.43-12.84s-.37-.51-1.42-.51c-1.62,0-3.01,1.39-4.36,5.27-.4,1.15-.76,2.35-1.12,3.53-.55,1.81-1.05,3.77-2.86,6.2-2,2.66-3.99,3.71-5.4,3.71-1.68,0-2.54-1.45-1.47-5.43,1.17-4.41,4.03-7.03,3.62-10.17-.24-1.67-1.51-2.62-4.23-2.62h-4.93c-.27-2.46-1.34-4.19-2.8-4.19-1.25,0-2.26,.93-2.59,2.6-.33,1.7,.59,3.61,2.62,4.27,0,.04-.01,.07-.01,.12-.47,1.32-2.08,2-3.74,2.32-.25-1.13-.69-2.14-1.3-2.98-.01-.01-.01-.02-.02-.03-1.27-1.7-3.19-2.7-5.36-2.7-4.87,0-9.52,3.49-11.51,10.83-.18,.69-.29,1.36-.35,2-.02,.54-.04,1.3,.06,2.15-1.22,1.6-2.76,2.75-4.27,3.34-.68,.24-1.36,.37-2,.37-1.67,0-3.37-1.45-2.31-5.43l2.65-9.84h3.34c4.61,0,5.4-2.94,5.4-2.94h-7.94l.78-2.92c1.68-6.27,.8-8.37-1.18-8.37-1.05,0-1.32,.52-1.32,.52,0,0-2.68,9.84-2.96,10.77h-4.14l-.78,2.94h3.99c-3.78,11.2-7.92,15.27-10.63,15.27-1.67,0-2.54-1.45-1.48-5.43l3.43-12.78s-.37-.51-1.42-.51-2.07,.64-3.01,2.25c-1.26-1.42-3.03-2.25-5-2.25-4.87,0-9.52,3.48-11.5,10.83-.32,1.16-.44,2.26-.41,3.28-1.64,3.24-3.87,4.61-5.17,4.61-1.67,0-2.54-1.45-1.47-5.43l6.17-23.02c1.68-6.27,.8-8.37-1.19-8.37-1.04,0-1.31,.51-1.31,.51l-4.71,17.6c-1.36,5.02-4.4,7.01-7.54,7.01-.54,0-.99-.14-1.38-.34-.01-.16-.03-.31-.06-.47-.59-3.76-3.38-6.21-6.79-6.21-4.87,0-9.52,3.48-11.5,10.83-.15,.57-.25,1.12-.32,1.65-.1,.63-.11,1.31-.06,1.97-2.28,2.85-5.94,4.71-8.97,4.71-4.19,0-6.27-3.51-4.98-8.33,1.49-5.55,4.57-8.31,6.77-8.31,1.26,0,3.04,.96,.75,4.82,0,0,.43,.83,1.68,.83s2.87-.8,3.44-2.89c.84-3.14-1.22-5.28-5.2-5.28-3.1,0-6.56,1.59-9.1,4.85-1.44,1.51-3.22,2.17-5.01,2.17-.83,0-1.44-.31-1.92-.71l-.12-.1c-.6-3.76-3.39-6.21-6.8-6.21-4.87,0-9.52,3.48-11.5,10.83-.29,1.07-.41,2.08-.41,3.04,0,.54,.06,1.07,.15,1.54-1.52,2.31-3.29,3.31-4.4,3.31-1.67,0-2.53-1.45-1.47-5.43,.99-3.71,1.99-7.43,1.99-7.43,1.07-3.98-.1-5.86-1.98-5.86-3.74,0-7.52,3.38-9.39,5.32l4.04-15.05c1.67-6.27,.8-8.37-1.19-8.37-1.05,0-1.3,.51-1.3,.51l-3.24,12.05c-4.11,15.7-21.33,29.31-32.22,29.31-6.28,0-10.06-7.12-6.7-19.69,4.19-15.63,16.42-26.79,23.75-26.79,3.76,0,6.07,3.13,3.54,12.56,0,0,.22,1.04,2.1,1.04,1.36,0,4.01-1.16,4.85-4.3,1.57-5.86-2.16-13.07-9.49-13.07-16.75,0-33.33,21.33-33.33,38.31,0,10.47,5.24,16.12,13.61,16.12,9.6,0,22.33-7.35,30.31-20.15l-3.52,13.15s.31,.71,1.36,.71c1.99,0,3.62-2.1,5.29-8.37l.91-3.37c1.44-1.74,4.69-5.38,6.6-5.38,1.05,0,1.55,.73,.74,3.77,0,0-.93,3.46-1.84,6.87-.91,3.4,.5,6.48,4.13,6.48,2.34,0,5.27-1.23,7.68-3.74,1.24,2.33,3.54,3.74,6.13,3.74,4.87,0,9.3-3.48,11.29-10.83,.12-.47,.21-.93,.28-1.38l.14,.04c.56,.15,1.2,.25,1.93,.25,.85,0,1.75-.19,2.64-.54-.2,.52-.38,1.06-.52,1.63-1.69,6.28,1.77,10.84,8.05,10.84,3.3,0,7.8-1.33,11.24-4.06,1.2,2.51,3.58,4.05,6.28,4.05,4.88,0,9.31-3.48,11.3-10.83,.11-.42,.19-.83,.26-1.23,.45,.08,.94,.14,1.48,.14,1.84,0,3.84-.77,5.6-2.53l-2.14,7.97c-.9,3.4,.51,6.48,4.13,6.48,2.43,0,5.78-1.32,8.48-3.99,1.21,2.48,3.58,3.99,6.26,3.99,2.2,0,4.31-.72,6.15-2.19,.78,1.31,2.17,2.19,4.09,2.19,3.17,0,6.65-1.89,9.89-5.91-.02,3.77,2.62,5.91,5.64,5.91,3.64,0,6.04-1.29,8.73-3.81,1.23,2.38,3.53,3.84,6.15,3.84,4.72,0,9.02-3.29,11.09-10.19,.34-1.15,.51-2.42,.51-2.42,3.18-.53,6.45-2.01,6.95-5.2,0-.11,.02-.21,.02-.32,2.84,0,4.01,.13,4.16,1.73,.22,2.09-3.13,5.62-4.31,10-.91,3.41,1.35,6.48,4.96,6.48,2.5,0,5.15-1.16,7.73-3.61-.15,2.44,.87,3.62,2.35,3.62,3.76,0,7.56-3.41,9.42-5.33l-2.43,9.17c-1.49,5.54-4.59,8.3-6.78,8.3-1.26,0-3.04-.97-.75-4.82,0,0-.42-.84-1.68-.84s-2.88,.81-3.44,2.9c-.82,3.06,1.11,5.17,4.89,5.27,.1,.01,.2,.01,.31,.01,.14,0,.29,0,.43-.01,4.52-.21,9.66-3.71,11.57-10.81l6.71-24.98s-.38-.51-1.43-.51Zm-160.67,9.04c-1.5,7.33-5,9.97-7.14,9.97s-3.17-2.61-2.3-6.85c1.5-7.33,5-9.97,7.13-9.97s3.17,2.61,2.31,6.85Zm41.34,0c-1.5,7.33-5,9.97-7.14,9.97s-3.17-2.61-2.3-6.85c1.5-7.33,5.01-9.97,7.13-9.97s3.17,2.61,2.31,6.85Zm35.66,0c-1.5,7.33-5.01,9.97-7.14,9.97s-3.17-2.61-2.3-6.85c1.5-7.33,5-9.97,7.14-9.97s3.17,2.61,2.3,6.85Zm40.6,.25c-1.5,7.33-5,9.97-7.14,9.97s-3.17-2.6-2.3-6.85c1.5-7.33,5-9.97,7.13-9.97s3.17,2.61,2.31,6.85Z"/><path class="cls-3" d="M87.82,73.67H25.98v-3h60.65c.31,1.03,.71,2.04,1.19,3Z"/><path class="cls-3" d="M119.63,26.94c0-.89,.72-1.6,1.6-1.6s1.61,.71,1.61,1.6-.72,1.61-1.61,1.61-1.6-.72-1.6-1.61Z"/><path class="cls-3" d="M190.26,29.41c0-.88,.72-1.6,1.61-1.6s1.6,.72,1.6,1.6-.72,1.61-1.6,1.61-1.61-.72-1.61-1.61Z"/><path class="cls-3" d="M112.48,68.88l13.19,17.88c-4.84-.42-9.34-1.34-13.33-2.72l.14-15.16Z"/><path class="cls-3" d="M136.95,26.42c-1.08,.27-2.15,.56-3.21,.86l-16.58,35.35,17.56,24.32c3.3-.14,6.7-.49,10.16-1.07l.1-61.05c-2.64,.4-5.33,.93-8.03,1.59Zm-11.97,46.1v-14.7l6.11-3.73v16.97l-6.11,1.46Zm4.82-19.26c-1.37,1.35-3.24,1.29-4.17-.1-.93-1.42-.62-3.68,.79-5.06,1.41-1.37,3.24-1.29,4.17,.13,.92,1.4,.58,3.68-.79,5.03Zm13.73,13.32c-.94,2.16-3.68,3.73-6.33,2.86-1.28-.41-3.35-1.69-3.33-4.93l.05-9.22-1.88,.47,.05-2.18,6.29-8.77,1.87-.46-.06,4.98,3.85-.96-.04,4.42-3.87,.97-.06,7.51c0,1.64,.06,2.44,.46,2.8,1.2,1.07,2.97-1.05,3.55-1.53,.08,.89,.08,2.57-.55,4.04Z"/><path class="cls-3" d="M160.21,24.03l-7.94,21.85,.03-21.81c2.7-.15,5.35-.16,7.91-.04Z"/><path class="cls-3" d="M152.47,60.07l13.71,19.3c-4.23,1.95-8.83,3.6-13.71,4.88v-24.18Z"/><path class="cls-3" d="M171.32,52.13l-.12,4c-.05,1.07-1.09,1.46-1.64,1.33-.49-.11-1.24-.58-1.04-1.87,.2-1.2,2.07-2.92,2.8-3.46Z"/><path class="cls-3" d="M193.53,43.26c-.54-2.18-1.47-4.21-2.75-6.06l-.04,4.31-3.87,.97-.06,7.52c0,1.64,.06,2.43,.47,2.79,1.19,1.07,2.96-1.04,3.54-1.52,.09,.88,.08,2.56-.55,4.04-.93,2.15-3.67,3.72-6.33,2.86-1.27-.42-3.34-1.69-3.33-4.93l.05-9.22-1.87,.46,.05-2.17,6.32-8.82,1.83-.46c-4.48-3.86-10.82-6.61-18.31-8.01l-11.52,28.02,16.11,22.61c14.64-8.76,23.04-21.17,20.26-32.39Zm-14.58,14.44c-1.04,2.92-3.56,3.95-6.11,2.4-2.36,2.4-4.96,2.81-7.06,2.15-1.9-.61-3.47-3.9-2.83-6.62,.39-1.67,1.02-3,2.65-4.51,1.63-1.5,4.67-3.09,5.39-4.44,.57-1.03,.17-2.22-.97-1.95-1.88,.45-5.01,3.93-6.45,5.54l.03-5.45c.99-1.61,3.1-4.3,5.68-5.22,3.68-1.31,7.91,.68,8.03,4.71v9.83c0,1.02,1.52,.72,2.24-.2,.02,.82-.18,2.58-.6,3.76Zm7.98-19.55l3.85-.95-.07-.09c-1.02-1.47-2.27-2.83-3.72-4.08l-.06,5.02v.1Z"/><path class="cls-3" d="M105.93,38.79c-.07-1.38-.76-2.6-2.2-2.23-1.37,.35-2.09,1.96-2.02,3.44,.08,1.58,.99,2.69,2.31,2.27,.88-.29,1.71-1.16,1.82-2.19,.02-.14-.06-.3-.2-.25l-.62,.19c-.12,.03-.21,.13-.26,.25-.15,.4-.41,.67-.81,.79-.56,.18-.98-.28-1.04-.91l2.69-.79c.24-.08,.34-.28,.33-.57Zm-3.07,.26c.02-.64,.42-1.22,.93-1.36,.5-.13,.94,.21,1.01,.81l-1.94,.55Zm6.43-5.09c0-.17-.11-.28-.24-.25l-8.8,1.89c-.23,.06-.4,.32-.39,.59l.27,4.61s-2.27-4.03-2.44-4.29c-.13-.2-.38-.35-.72-.27l-.78,.19c-.25,.06-.45,.32-.44,.6l.37,7.08c.01,.28,.23,.45,.48,.37l.47-.17c.23-.07,.42-.36,.41-.63l-.29-4.88s2.41,4.13,2.49,4.24c.14,.21,.34,.33,.65,.24l.7-.23c.23-.07,.4-.34,.39-.6l-.29-5.9,7.97-1.8c.13-.03,.22-.18,.22-.35l-.03-.44Zm-12.99,12.52l.13,2.57c7.98-8.93,18.28-4.12,21.06-10.41-4.88,5.32-11.44,.82-21.19,7.84Zm12.43-8.74c-.25-.02-.86-.05-.99-.06-.23-.02-.45-.05-.47-.3-.01-.38,.26-.58,.6-.67,.38-.1,.66,0,.77,.27,.05,.13,.15,.13,.27,.1l.49-.13c.08-.02,.17-.13,.16-.27-.03-.74-.74-1.23-1.73-.99-1.05,.25-1.72,1.06-1.67,2.07,.03,.77,.55,1.1,1.15,1.13,.28,.01,.73,.03,.96,.04,.24,.02,.45,.05,.46,.3,.02,.4-.31,.64-.68,.75-.35,.1-.7,0-.82-.29-.07-.17-.4-.12-.56-.08l-.31,.11c-.09,.02-.19,.15-.18,.3v.09c.04,.74,.86,1.27,1.92,.94,.75-.22,1.74-.91,1.69-2.16-.04-.71-.44-1.12-1.06-1.15Zm3.38,1.33c-.01-.17-.12-.27-.25-.23l-.06,.02c-.37,.1-.59-.14-.61-.58l-.1-2.26,.68-.17c.12-.03,.21-.17,.21-.33l-.02-.41c-.01-.15-.11-.25-.23-.22l-.69,.17-.06-1.5c-.01-.22-.16-.36-.33-.32l-.45,.09c-.17,.04-.3,.24-.29,.46l.07,1.52-.23,.05c-.13,.03-.22,.18-.21,.34l.02,.42c0,.15,.11,.25,.23,.22l.24-.06,.11,2.47c.04,.86,.57,1.48,1.36,1.24l.41-.12c.13-.03,.23-.2,.22-.36l-.02-.44Zm.99-5.92c-.01-.21-.2-.35-.35-.31l-.42,.09c-.16,.03-.28,.23-.28,.45l.33,5.92c.01,.21,.15,.35,.31,.3l.41-.13c.16-.04,.33-.23,.32-.44l-.32-5.88Zm4.1-1.01c0-.17-.12-.3-.26-.25,0,0-2.97,.97-3.07,1-.11,.04-.18,.17-.17,.28v.29c.02,.11,.1,.19,.2,.17l3.09-.66c.14-.03,.24-.2,.23-.37l-.02-.46Zm.34,3.72c-.04-1.2-.68-2.27-2.03-1.98-1.29,.28-1.97,1.66-1.91,2.94,.06,1.37,.89,2.35,2.13,2.02,.83-.23,1.6-1.02,1.72-1.92,.01-.11-.06-.25-.19-.22l-.58,.15c-.1,.02-.19,.11-.24,.22-.15,.34-.39,.62-.75,.72-.53,.13-.92-.27-.98-.81l2.52-.63c.23-.06,.33-.23,.31-.49Zm-2.86,.16c.02-.55,.4-1.05,.88-1.15,.46-.11,.87,.2,.94,.72l-1.82,.43Zm1.05,2.82c.83-.23,1.6-1.02,1.72-1.92,.01-.11-.06-.25-.19-.22l-.58,.15c-.1,.02-.19,.11-.24,.22-.15,.34-.39,.62-.75,.72-.53,.13-.92-.27-.98-.81l2.52-.63c.23-.06,.33-.23,.31-.49-.04-1.2-.68-2.27-2.03-1.98-1.29,.28-1.97,1.66-1.91,2.94,.06,1.37,.89,2.35,2.13,2.02Zm-.17-3.97c.46-.11,.87,.2,.94,.72l-1.82,.43c.02-.55,.4-1.05,.88-1.15Zm-1.66-1.24l3.09-.66c.14-.03,.24-.2,.23-.37l-.02-.46c0-.17-.12-.3-.26-.25,0,0-2.97,.97-3.07,1-.11,.04-.18,.17-.17,.28v.29c.02,.11,.1,.19,.2,.17Zm-1.21,5.97l.41-.13c.16-.04,.33-.23,.32-.44l-.32-5.88c-.01-.21-.2-.35-.35-.31l-.42,.09c-.16,.03-.28,.23-.28,.45l.33,5.92c.01,.21,.15,.35,.31,.3Zm-2.9-3.26l.24-.06,.11,2.47c.04,.86,.57,1.48,1.36,1.24l.41-.12c.13-.03,.23-.2,.22-.36l-.02-.44c-.01-.17-.12-.27-.25-.23l-.06,.02c-.37,.1-.59-.14-.61-.58l-.1-2.26,.68-.17c.12-.03,.21-.17,.21-.33l-.02-.41c-.01-.15-.11-.25-.23-.22l-.69,.17-.06-1.5c-.01-.22-.16-.36-.33-.32l-.45,.09c-.17,.04-.3,.24-.29,.46l.07,1.52-.23,.05c-.13,.03-.22,.18-.21,.34l.02,.42c0,.15,.11,.25,.23,.22Zm-1.74,3.64c-.35,.1-.7,0-.82-.29-.07-.17-.4-.12-.56-.08l-.31,.11c-.09,.02-.19,.15-.18,.3v.09c.04,.74,.86,1.27,1.92,.94,.75-.22,1.74-.91,1.69-2.16-.04-.71-.44-1.12-1.06-1.15-.25-.02-.86-.05-.99-.06-.23-.02-.45-.05-.47-.3-.01-.38,.26-.58,.6-.67,.38-.1,.66,0,.77,.27,.05,.13,.15,.13,.27,.1l.49-.13c.08-.02,.17-.13,.16-.27-.03-.74-.74-1.23-1.73-.99-1.05,.25-1.72,1.06-1.67,2.07,.03,.77,.55,1.1,1.15,1.13,.28,.01,.73,.03,.96,.04,.24,.02,.45,.05,.46,.3,.02,.4-.31,.64-.68,.75Zm-11.75,6.5l.13,2.57c7.98-8.93,18.28-4.12,21.06-10.41-4.88,5.32-11.44,.82-21.19,7.84Zm.3-2l.47-.17c.23-.07,.42-.36,.41-.63l-.29-4.88s2.41,4.13,2.49,4.24c.14,.21,.34,.33,.65,.24l.7-.23c.23-.07,.4-.34,.39-.6l-.29-5.9,7.97-1.8c.13-.03,.22-.18,.22-.35l-.03-.44c0-.17-.11-.28-.24-.25l-8.8,1.89c-.23,.06-.4,.32-.39,.59l.27,4.61s-2.27-4.03-2.44-4.29c-.13-.2-.38-.35-.72-.27l-.78,.19c-.25,.06-.45,.32-.44,.6l.37,7.08c.01,.28,.23,.45,.48,.37Zm9.33-5.69c-.07-1.38-.76-2.6-2.2-2.23-1.37,.35-2.09,1.96-2.02,3.44,.08,1.58,.99,2.69,2.31,2.27,.88-.29,1.71-1.16,1.82-2.19,.02-.14-.06-.3-.2-.25l-.62,.19c-.12,.03-.21,.13-.26,.25-.15,.4-.41,.67-.81,.79-.56,.18-.98-.28-1.04-.91l2.69-.79c.24-.08,.34-.28,.33-.57Zm-3.07,.26c.02-.64,.42-1.22,.93-1.36,.5-.13,.94,.21,1.01,.81l-1.94,.55Zm94.74,3.2c-3.23-13.05-19.51-20.9-39.92-20.9-6.76,0-13.98,.86-21.32,2.68-5.82,1.44-11.29,3.38-16.29,5.69-.01,.01-.02,.01-.04,.02,0-.01-.07-.26-.15-.57-.09-.32-.19-.68-.27-.93-.09-.3-.35-.52-.65-.58-.31-.05-.63,.07-.82,.32-.35,.43-.76,.41-2.11,.11h-.04c-1.74-.4-4.3-.98-6.69,2.18-2.43-1.59-5.45-2.26-7.93-1.72-2.84,.62-5.47,2.41-7.41,5.02-2.15,2.92-3.23,6.44-3.05,9.92,.01,.25,.03,.49,.06,.74,.27,2.62,1.31,5.02,2.98,6.98-3.41,5.76-4.68,11.77-3.26,17.51,4.3,17.36,31.72,25.52,61.24,18.21s49.97-27.31,45.67-44.68Zm-105.55,2.42c-.03-.22-.05-.45-.07-.68-.24-3.34,.78-6.73,2.71-9.45,1.87-2.63,4.34-4.24,6.83-4.85,2.47-.59,5.65,.2,7.98,1.91l.03,.03,.03-.05c2.15-3.51,4.43-3,6.27-2.63,1.22,.25,2.25,.46,2.95-.47,.48,1.4,.8,2.74,.97,3.99,.09,.65,.13,1.28,.14,1.88,.02,1.62-.26,3.1-.82,4.42-.6,1.39-1.5,2.58-2.71,3.54-1.11,.88-2.44,1.54-3.87,1.91-4.52,1.14-8.29,2.49-10.93,4.1-2.59,1.57-3.79,3.19-4.6,4.64-2.73-1.99-4.49-4.86-4.91-8.29Zm59.62,41.2c-28.53,7.07-55.03-.81-59.18-17.6-1.29-5.2-.28-10.65,2.58-15.9,.07,.07,.15,.14,.23,.21,.41,.37,.87,.7,1.37,1-2.3,4.68-3.06,9.51-1.92,14.13,1.34,5.38,5.07,9.8,10.48,13.05l.06-33.75c.09-.04,.18-.07,.27-.1,1.92-.72,4.19-1.38,6.79-1.99v11.82l10.6-25.53c-.82,.36-1.63,.74-2.43,1.13-.06-.48-.14-.97-.24-1.48,4.99-2.35,10.48-4.32,16.34-5.77,28.53-7.06,55.03,.82,59.18,17.6,4.16,16.79-15.6,36.12-44.13,43.18Zm-35.94-47.03c.83-.23,1.6-1.02,1.72-1.92,.01-.11-.06-.25-.19-.22l-.58,.15c-.1,.02-.19,.11-.24,.22-.15,.34-.39,.62-.75,.72-.53,.13-.92-.27-.98-.81l2.52-.63c.23-.06,.33-.23,.31-.49-.04-1.2-.68-2.27-2.03-1.98-1.29,.28-1.97,1.66-1.91,2.94,.06,1.37,.89,2.35,2.13,2.02Zm-.17-3.97c.46-.11,.87,.2,.94,.72l-1.82,.43c.02-.55,.4-1.05,.88-1.15Zm-1.66-1.24l3.09-.66c.14-.03,.24-.2,.23-.37l-.02-.46c0-.17-.12-.3-.26-.25,0,0-2.97,.97-3.07,1-.11,.04-.18,.17-.17,.28v.29c.02,.11,.1,.19,.2,.17Zm-1.21,5.97l.41-.13c.16-.04,.33-.23,.32-.44l-.32-5.88c-.01-.21-.2-.35-.35-.31l-.42,.09c-.16,.03-.28,.23-.28,.45l.33,5.92c.01,.21,.15,.35,.31,.3Zm-2.9-3.26l.24-.06,.11,2.47c.04,.86,.57,1.48,1.36,1.24l.41-.12c.13-.03,.23-.2,.22-.36l-.02-.44c-.01-.17-.12-.27-.25-.23l-.06,.02c-.37,.1-.59-.14-.61-.58l-.1-2.26,.68-.17c.12-.03,.21-.17,.21-.33l-.02-.41c-.01-.15-.11-.25-.23-.22l-.69,.17-.06-1.5c-.01-.22-.16-.36-.33-.32l-.45,.09c-.17,.04-.3,.24-.29,.46l.07,1.52-.23,.05c-.13,.03-.22,.18-.21,.34l.02,.42c0,.15,.11,.25,.23,.22Zm-1.96-.65c-1.05,.25-1.72,1.06-1.67,2.07,.03,.77,.55,1.1,1.15,1.13,.28,.01,.73,.03,.96,.04,.24,.02,.45,.05,.46,.3,.02,.4-.31,.64-.68,.75-.35,.1-.7,0-.82-.29-.07-.17-.4-.12-.56-.08l-.31,.11c-.09,.02-.19,.15-.18,.3v.09c.04,.74,.86,1.27,1.92,.94,.75-.22,1.74-.91,1.69-2.16-.04-.71-.44-1.12-1.06-1.15-.25-.02-.86-.05-.99-.06-.23-.02-.45-.05-.47-.3-.01-.38,.26-.58,.6-.67,.38-.1,.66,0,.77,.27,.05,.13,.15,.13,.27,.1l.49-.13c.08-.02,.17-.13,.16-.27-.03-.74-.74-1.23-1.73-.99Zm-11.53,10.79l.13,2.57c7.98-8.93,18.28-4.12,21.06-10.41-4.88,5.32-11.44,.82-21.19,7.84Zm.3-2l.47-.17c.23-.07,.42-.36,.41-.63l-.29-4.88s2.41,4.13,2.49,4.24c.14,.21,.34,.33,.65,.24l.7-.23c.23-.07,.4-.34,.39-.6l-.29-5.9,7.97-1.8c.13-.03,.22-.18,.22-.35l-.03-.44c0-.17-.11-.28-.24-.25l-8.8,1.89c-.23,.06-.4,.32-.39,.59l.27,4.61s-2.27-4.03-2.44-4.29c-.13-.2-.38-.35-.72-.27l-.78,.19c-.25,.06-.45,.32-.44,.6l.37,7.08c.01,.28,.23,.45,.48,.37Zm9.33-5.69c-.07-1.38-.76-2.6-2.2-2.23-1.37,.35-2.09,1.96-2.02,3.44,.08,1.58,.99,2.69,2.31,2.27,.88-.29,1.71-1.16,1.82-2.19,.02-.14-.06-.3-.2-.25l-.62,.19c-.12,.03-.21,.13-.26,.25-.15,.4-.41,.67-.81,.79-.56,.18-.98-.28-1.04-.91l2.69-.79c.24-.08,.34-.28,.33-.57Zm-3.07,.26c.02-.64,.42-1.22,.93-1.36,.5-.13,.94,.21,1.01,.81l-1.94,.55Zm3.07-.26c-.07-1.38-.76-2.6-2.2-2.23-1.37,.35-2.09,1.96-2.02,3.44,.08,1.58,.99,2.69,2.31,2.27,.88-.29,1.71-1.16,1.82-2.19,.02-.14-.06-.3-.2-.25l-.62,.19c-.12,.03-.21,.13-.26,.25-.15,.4-.41,.67-.81,.79-.56,.18-.98-.28-1.04-.91l2.69-.79c.24-.08,.34-.28,.33-.57Zm-3.07,.26c.02-.64,.42-1.22,.93-1.36,.5-.13,.94,.21,1.01,.81l-1.94,.55Zm6.43-5.09c0-.17-.11-.28-.24-.25l-8.8,1.89c-.23,.06-.4,.32-.39,.59l.27,4.61s-2.27-4.03-2.44-4.29c-.13-.2-.38-.35-.72-.27l-.78,.19c-.25,.06-.45,.32-.44,.6l.37,7.08c.01,.28,.23,.45,.48,.37l.47-.17c.23-.07,.42-.36,.41-.63l-.29-4.88s2.41,4.13,2.49,4.24c.14,.21,.34,.33,.65,.24l.7-.23c.23-.07,.4-.34,.39-.6l-.29-5.9,7.97-1.8c.13-.03,.22-.18,.22-.35l-.03-.44Zm-12.99,12.52l.13,2.57c7.98-8.93,18.28-4.12,21.06-10.41-4.88,5.32-11.44,.82-21.19,7.84Zm12.43-8.74c-.25-.02-.86-.05-.99-.06-.23-.02-.45-.05-.47-.3-.01-.38,.26-.58,.6-.67,.38-.1,.66,0,.77,.27,.05,.13,.15,.13,.27,.1l.49-.13c.08-.02,.17-.13,.16-.27-.03-.74-.74-1.23-1.73-.99-1.05,.25-1.72,1.06-1.67,2.07,.03,.77,.55,1.1,1.15,1.13,.28,.01,.73,.03,.96,.04,.24,.02,.45,.05,.46,.3,.02,.4-.31,.64-.68,.75-.35,.1-.7,0-.82-.29-.07-.17-.4-.12-.56-.08l-.31,.11c-.09,.02-.19,.15-.18,.3v.09c.04,.74,.86,1.27,1.92,.94,.75-.22,1.74-.91,1.69-2.16-.04-.71-.44-1.12-1.06-1.15Zm3.38,1.33c-.01-.17-.12-.27-.25-.23l-.06,.02c-.37,.1-.59-.14-.61-.58l-.1-2.26,.68-.17c.12-.03,.21-.17,.21-.33l-.02-.41c-.01-.15-.11-.25-.23-.22l-.69,.17-.06-1.5c-.01-.22-.16-.36-.33-.32l-.45,.09c-.17,.04-.3,.24-.29,.46l.07,1.52-.23,.05c-.13,.03-.22,.18-.21,.34l.02,.42c0,.15,.11,.25,.23,.22l.24-.06,.11,2.47c.04,.86,.57,1.48,1.36,1.24l.41-.12c.13-.03,.23-.2,.22-.36l-.02-.44Zm.99-5.92c-.01-.21-.2-.35-.35-.31l-.42,.09c-.16,.03-.28,.23-.28,.45l.33,5.92c.01,.21,.15,.35,.31,.3l.41-.13c.16-.04,.33-.23,.32-.44l-.32-5.88Zm4.1-1.01c0-.17-.12-.3-.26-.25,0,0-2.97,.97-3.07,1-.11,.04-.18,.17-.17,.28v.29c.02,.11,.1,.19,.2,.17l3.09-.66c.14-.03,.24-.2,.23-.37l-.02-.46Zm.34,3.72c-.04-1.2-.68-2.27-2.03-1.98-1.29,.28-1.97,1.66-1.91,2.94,.06,1.37,.89,2.35,2.13,2.02,.83-.23,1.6-1.02,1.72-1.92,.01-.11-.06-.25-.19-.22l-.58,.15c-.1,.02-.19,.11-.24,.22-.15,.34-.39,.62-.75,.72-.53,.13-.92-.27-.98-.81l2.52-.63c.23-.06,.33-.23,.31-.49Zm-2.86,.16c.02-.55,.4-1.05,.88-1.15,.46-.11,.87,.2,.94,.72l-1.82,.43Zm2.86-.16c-.04-1.2-.68-2.27-2.03-1.98-1.29,.28-1.97,1.66-1.91,2.94,.06,1.37,.89,2.35,2.13,2.02,.83-.23,1.6-1.02,1.72-1.92,.01-.11-.06-.25-.19-.22l-.58,.15c-.1,.02-.19,.11-.24,.22-.15,.34-.39,.62-.75,.72-.53,.13-.92-.27-.98-.81l2.52-.63c.23-.06,.33-.23,.31-.49Zm-2.86,.16c.02-.55,.4-1.05,.88-1.15,.46-.11,.87,.2,.94,.72l-1.82,.43Zm2.52-3.88c0-.17-.12-.3-.26-.25,0,0-2.97,.97-3.07,1-.11,.04-.18,.17-.17,.28v.29c.02,.11,.1,.19,.2,.17l3.09-.66c.14-.03,.24-.2,.23-.37l-.02-.46Zm-4.1,1.01c-.01-.21-.2-.35-.35-.31l-.42,.09c-.16,.03-.28,.23-.28,.45l.33,5.92c.01,.21,.15,.35,.31,.3l.41-.13c.16-.04,.33-.23,.32-.44l-.32-5.88Zm-.99,5.92c-.01-.17-.12-.27-.25-.23l-.06,.02c-.37,.1-.59-.14-.61-.58l-.1-2.26,.68-.17c.12-.03,.21-.17,.21-.33l-.02-.41c-.01-.15-.11-.25-.23-.22l-.69,.17-.06-1.5c-.01-.22-.16-.36-.33-.32l-.45,.09c-.17,.04-.3,.24-.29,.46l.07,1.52-.23,.05c-.13,.03-.22,.18-.21,.34l.02,.42c0,.15,.11,.25,.23,.22l.24-.06,.11,2.47c.04,.86,.57,1.48,1.36,1.24l.41-.12c.13-.03,.23-.2,.22-.36l-.02-.44Zm-3.38-1.33c-.25-.02-.86-.05-.99-.06-.23-.02-.45-.05-.47-.3-.01-.38,.26-.58,.6-.67,.38-.1,.66,0,.77,.27,.05,.13,.15,.13,.27,.1l.49-.13c.08-.02,.17-.13,.16-.27-.03-.74-.74-1.23-1.73-.99-1.05,.25-1.72,1.06-1.67,2.07,.03,.77,.55,1.1,1.15,1.13,.28,.01,.73,.03,.96,.04,.24,.02,.45,.05,.46,.3,.02,.4-.31,.64-.68,.75-.35,.1-.7,0-.82-.29-.07-.17-.4-.12-.56-.08l-.31,.11c-.09,.02-.19,.15-.18,.3v.09c.04,.74,.86,1.27,1.92,.94,.75-.22,1.74-.91,1.69-2.16-.04-.71-.44-1.12-1.06-1.15Zm-12.43,8.74l.13,2.57c7.98-8.93,18.28-4.12,21.06-10.41-4.88,5.32-11.44,.82-21.19,7.84Zm12.99-12.52c0-.17-.11-.28-.24-.25l-8.8,1.89c-.23,.06-.4,.32-.39,.59l.27,4.61s-2.27-4.03-2.44-4.29c-.13-.2-.38-.35-.72-.27l-.78,.19c-.25,.06-.45,.32-.44,.6l.37,7.08c.01,.28,.23,.45,.48,.37l.47-.17c.23-.07,.42-.36,.41-.63l-.29-4.88s2.41,4.13,2.49,4.24c.14,.21,.34,.33,.65,.24l.7-.23c.23-.07,.4-.34,.39-.6l-.29-5.9,7.97-1.8c.13-.03,.22-.18,.22-.35l-.03-.44Zm-3.36,4.83c-.07-1.38-.76-2.6-2.2-2.23-1.37,.35-2.09,1.96-2.02,3.44,.08,1.58,.99,2.69,2.31,2.27,.88-.29,1.71-1.16,1.82-2.19,.02-.14-.06-.3-.2-.25l-.62,.19c-.12,.03-.21,.13-.26,.25-.15,.4-.41,.67-.81,.79-.56,.18-.98-.28-1.04-.91l2.69-.79c.24-.08,.34-.28,.33-.57Zm-3.07,.26c.02-.64,.42-1.22,.93-1.36,.5-.13,.94,.21,1.01,.81l-1.94,.55Z"/><path class="cls-3" d="M264.25,106.73c-1.98,0-3.61,2.09-5.29,8.36-1.13,4.19-5.42,8.76-7.51,8.76-1.05,0-1.55-.73-.74-3.77l3.43-12.84s-.37-.51-1.42-.51c-1.62,0-3.01,1.39-4.36,5.27-.4,1.15-.76,2.35-1.12,3.53-.55,1.81-1.05,3.77-2.86,6.2-2,2.66-3.99,3.71-5.4,3.71-1.68,0-2.54-1.45-1.47-5.43,1.17-4.41,4.03-7.03,3.62-10.17-.24-1.67-1.51-2.62-4.23-2.62h-4.93c-.27-2.46-1.34-4.19-2.8-4.19-1.25,0-2.26,.93-2.59,2.6-.33,1.7,.59,3.61,2.62,4.27,0,.04-.01,.07-.01,.12-.47,1.32-2.08,2-3.74,2.32-.25-1.13-.69-2.14-1.3-2.98-.01-.01-.01-.02-.02-.03-1.27-1.7-3.19-2.7-5.36-2.7-4.87,0-9.52,3.49-11.51,10.83-.18,.69-.29,1.36-.35,2-.02,.54-.04,1.3,.06,2.15-1.22,1.6-2.76,2.75-4.27,3.34-.68,.24-1.36,.37-2,.37-1.67,0-3.37-1.45-2.31-5.43l2.65-9.84h3.34c4.61,0,5.4-2.94,5.4-2.94h-7.94l.78-2.92c1.68-6.27,.8-8.37-1.18-8.37-1.05,0-1.32,.52-1.32,.52,0,0-2.68,9.84-2.96,10.77h-4.14l-.78,2.94h3.99c-3.78,11.2-7.92,15.27-10.63,15.27-1.67,0-2.54-1.45-1.48-5.43l3.43-12.78s-.37-.51-1.42-.51-2.07,.64-3.01,2.25c-1.26-1.42-3.03-2.25-5-2.25-4.87,0-9.52,3.48-11.5,10.83-.32,1.16-.44,2.26-.41,3.28-1.64,3.24-3.87,4.61-5.17,4.61-1.67,0-2.54-1.45-1.47-5.43l6.17-23.02c1.68-6.27,.8-8.37-1.19-8.37-1.04,0-1.31,.51-1.31,.51l-4.71,17.6c-1.36,5.02-4.4,7.01-7.54,7.01-.54,0-.99-.14-1.38-.34-.01-.16-.03-.31-.06-.47-.59-3.76-3.38-6.21-6.79-6.21-4.87,0-9.52,3.48-11.5,10.83-.15,.57-.25,1.12-.32,1.65-.1,.63-.11,1.31-.06,1.97-2.28,2.85-5.94,4.71-8.97,4.71-4.19,0-6.27-3.51-4.98-8.33,1.49-5.55,4.57-8.31,6.77-8.31,1.26,0,3.04,.96,.75,4.82,0,0,.43,.83,1.68,.83s2.87-.8,3.44-2.89c.84-3.14-1.22-5.28-5.2-5.28-3.1,0-6.56,1.59-9.1,4.85-1.44,1.51-3.22,2.17-5.01,2.17-.83,0-1.44-.31-1.92-.71l-.12-.1c-.6-3.76-3.39-6.21-6.8-6.21-4.87,0-9.52,3.48-11.5,10.83-.29,1.07-.41,2.08-.41,3.04,0,.54,.06,1.07,.15,1.54-1.52,2.31-3.29,3.31-4.4,3.31-1.67,0-2.53-1.45-1.47-5.43,.99-3.71,1.99-7.43,1.99-7.43,1.07-3.98-.1-5.86-1.98-5.86-3.74,0-7.52,3.38-9.39,5.32l4.04-15.05c1.67-6.27,.8-8.37-1.19-8.37-1.05,0-1.3,.51-1.3,.51l-3.24,12.05c-4.11,15.7-21.33,29.31-32.22,29.31-6.28,0-10.06-7.12-6.7-19.69,4.19-15.63,16.42-26.79,23.75-26.79,3.76,0,6.07,3.13,3.54,12.56,0,0,.22,1.04,2.1,1.04,1.36,0,4.01-1.16,4.85-4.3,1.57-5.86-2.16-13.07-9.49-13.07-16.75,0-33.33,21.33-33.33,38.31,0,10.47,5.24,16.12,13.61,16.12,9.6,0,22.33-7.35,30.31-20.15l-3.52,13.15s.31,.71,1.36,.71c1.99,0,3.62-2.1,5.29-8.37l.91-3.37c1.44-1.74,4.69-5.38,6.6-5.38,1.05,0,1.55,.73,.74,3.77,0,0-.93,3.46-1.84,6.87-.91,3.4,.5,6.48,4.13,6.48,2.34,0,5.27-1.23,7.68-3.74,1.24,2.33,3.54,3.74,6.13,3.74,4.87,0,9.3-3.48,11.29-10.83,.12-.47,.21-.93,.28-1.38l.14,.04c.56,.15,1.2,.25,1.93,.25,.85,0,1.75-.19,2.64-.54-.2,.52-.38,1.06-.52,1.63-1.69,6.28,1.77,10.84,8.05,10.84,3.3,0,7.8-1.33,11.24-4.06,1.2,2.51,3.58,4.05,6.28,4.05,4.88,0,9.31-3.48,11.3-10.83,.11-.42,.19-.83,.26-1.23,.45,.08,.94,.14,1.48,.14,1.84,0,3.84-.77,5.6-2.53l-2.14,7.97c-.9,3.4,.51,6.48,4.13,6.48,2.43,0,5.78-1.32,8.48-3.99,1.21,2.48,3.58,3.99,6.26,3.99,2.2,0,4.31-.72,6.15-2.19,.78,1.31,2.17,2.19,4.09,2.19,3.17,0,6.65-1.89,9.89-5.91-.02,3.77,2.62,5.91,5.64,5.91,3.64,0,6.04-1.29,8.73-3.81,1.23,2.38,3.53,3.84,6.15,3.84,4.72,0,9.02-3.29,11.09-10.19,.34-1.15,.51-2.42,.51-2.42,3.18-.53,6.45-2.01,6.95-5.2,0-.11,.02-.21,.02-.32,2.84,0,4.01,.13,4.16,1.73,.22,2.09-3.13,5.62-4.31,10-.91,3.41,1.35,6.48,4.96,6.48,2.5,0,5.15-1.16,7.73-3.61-.15,2.44,.87,3.62,2.35,3.62,3.76,0,7.56-3.41,9.42-5.33l-2.43,9.17c-1.49,5.54-4.59,8.3-6.78,8.3-1.26,0-3.04-.97-.75-4.82,0,0-.42-.84-1.68-.84s-2.88,.81-3.44,2.9c-.82,3.06,1.11,5.17,4.89,5.27h.74c4.52-.21,9.66-3.71,11.57-10.81l6.71-24.98s-.38-.51-1.43-.51Zm-160.67,9.04c-1.5,7.33-5,9.97-7.14,9.97s-3.17-2.61-2.3-6.85c1.5-7.33,5-9.97,7.13-9.97s3.17,2.61,2.31,6.85Zm41.34,0c-1.5,7.33-5,9.97-7.14,9.97s-3.17-2.61-2.3-6.85c1.5-7.33,5.01-9.97,7.13-9.97s3.17,2.61,2.31,6.85Zm35.66,0c-1.5,7.33-5.01,9.97-7.14,9.97s-3.17-2.61-2.3-6.85c1.5-7.33,5-9.97,7.14-9.97s3.17,2.61,2.3,6.85Zm40.6,.25c-1.5,7.33-5,9.97-7.14,9.97s-3.17-2.6-2.3-6.85c1.5-7.33,5-9.97,7.13-9.97s3.17,2.61,2.31,6.85Z"/><path class="cls-3" d="M266.36,70.67v3h-78.38c1.23-.98,2.4-1.98,3.51-3h74.87Z"/></g><g><path class="cls-1" d="M87.82,73.67H25.98v-3h60.65c.31,1.03,.71,2.04,1.19,3Z"/><path class="cls-1" d="M266.36,70.67v3h-78.38c1.23-.98,2.4-1.98,3.51-3h74.87Z"/></g></svg>